<mxfile host="app.diagrams.net" modified="2022-03-10T15:08:45.288Z" agent="5.0 (Windows NT 10.0; Win64; x64) AppleWebKit/537.36 (KHTML, like Gecko) Chrome/97.0.4692.99 Safari/537.36 OPR/83.0.4254.70" etag="Jtp7bvOfbPhvOczThq6h" version="17.1.0" type="github">
  <diagram id="-t7eZelU3IxGABOgwKmu" name="Page-1">
    <mxGraphModel dx="788" dy="460" grid="1" gridSize="10" guides="1" tooltips="1" connect="1" arrows="1" fold="1" page="1" pageScale="1" pageWidth="827" pageHeight="1169" math="0" shadow="0">
      <root>
        <mxCell id="0" />
        <mxCell id="1" parent="0" />
        <mxCell id="QJkptyXSdFllFcenwYrm-1" value="Lista de alunos" style="swimlane;" vertex="1" parent="1">
          <mxGeometry x="90" y="140" width="200" height="200" as="geometry" />
        </mxCell>
        <mxCell id="QJkptyXSdFllFcenwYrm-2" value="Professores" style="swimlane;" vertex="1" parent="1">
          <mxGeometry x="310" y="150" width="200" height="200" as="geometry" />
        </mxCell>
        <mxCell id="QJkptyXSdFllFcenwYrm-3" value="Turmas" style="swimlane;" vertex="1" parent="1">
          <mxGeometry x="420" y="400" width="200" height="200" as="geometry" />
        </mxCell>
        <mxCell id="QJkptyXSdFllFcenwYrm-4" value="Plataforma" style="swimlane;" vertex="1" parent="1">
          <mxGeometry x="20" y="350" width="220" height="430" as="geometry" />
        </mxCell>
        <mxCell id="QJkptyXSdFllFcenwYrm-16" value="" style="endArrow=none;html=1;rounded=0;" edge="1" parent="QJkptyXSdFllFcenwYrm-4">
          <mxGeometry width="50" height="50" relative="1" as="geometry">
            <mxPoint y="110" as="sourcePoint" />
            <mxPoint x="200" y="110" as="targetPoint" />
          </mxGeometry>
        </mxCell>
        <mxCell id="QJkptyXSdFllFcenwYrm-17" value="alunos List&amp;lt;Alunos&amp;gt;" style="text;html=1;strokeColor=none;fillColor=none;align=center;verticalAlign=middle;whiteSpace=wrap;rounded=0;" vertex="1" parent="QJkptyXSdFllFcenwYrm-4">
          <mxGeometry x="35" y="20" width="130" height="40" as="geometry" />
        </mxCell>
        <mxCell id="QJkptyXSdFllFcenwYrm-19" value="professor List&amp;lt;Professores&amp;gt;" style="text;html=1;strokeColor=none;fillColor=none;align=center;verticalAlign=middle;whiteSpace=wrap;rounded=0;" vertex="1" parent="QJkptyXSdFllFcenwYrm-4">
          <mxGeometry x="30" y="50" width="160" height="30" as="geometry" />
        </mxCell>
        <mxCell id="QJkptyXSdFllFcenwYrm-11" value="Receber_notas&lt;br&gt;" style="text;html=1;strokeColor=none;fillColor=none;align=center;verticalAlign=middle;whiteSpace=wrap;rounded=0;direction=south;" vertex="1" parent="QJkptyXSdFllFcenwYrm-4">
          <mxGeometry x="55" y="215" width="115" height="60" as="geometry" />
        </mxCell>
        <mxCell id="QJkptyXSdFllFcenwYrm-10" value="anexar_Atividades" style="text;html=1;strokeColor=none;fillColor=none;align=center;verticalAlign=middle;whiteSpace=wrap;rounded=0;" vertex="1" parent="QJkptyXSdFllFcenwYrm-4">
          <mxGeometry x="82.5" y="200" width="60" height="30" as="geometry" />
        </mxCell>
        <mxCell id="QJkptyXSdFllFcenwYrm-9" value="Enviar_notas&lt;br&gt;" style="text;html=1;strokeColor=none;fillColor=none;align=center;verticalAlign=middle;whiteSpace=wrap;rounded=0;" vertex="1" parent="QJkptyXSdFllFcenwYrm-4">
          <mxGeometry x="57.5" y="261" width="110" height="30" as="geometry" />
        </mxCell>
        <mxCell id="QJkptyXSdFllFcenwYrm-13" value="Anexar_respostas(Lista Aluno)" style="text;html=1;strokeColor=none;fillColor=none;align=center;verticalAlign=middle;whiteSpace=wrap;rounded=0;" vertex="1" parent="QJkptyXSdFllFcenwYrm-4">
          <mxGeometry x="5" y="270" width="210" height="81" as="geometry" />
        </mxCell>
        <mxCell id="QJkptyXSdFllFcenwYrm-12" value="Abrir_atividades&lt;br&gt;" style="text;html=1;strokeColor=none;fillColor=none;align=center;verticalAlign=middle;whiteSpace=wrap;rounded=0;" vertex="1" parent="QJkptyXSdFllFcenwYrm-4">
          <mxGeometry x="70" y="321" width="60" height="30" as="geometry" />
        </mxCell>
        <mxCell id="QJkptyXSdFllFcenwYrm-6" value="Receber_atividades" style="text;html=1;strokeColor=none;fillColor=none;align=center;verticalAlign=middle;whiteSpace=wrap;rounded=0;" vertex="1" parent="QJkptyXSdFllFcenwYrm-4">
          <mxGeometry x="40" y="351" width="140" height="30" as="geometry" />
        </mxCell>
        <mxCell id="QJkptyXSdFllFcenwYrm-5" value="Anexar_Respostas&lt;br&gt;" style="text;html=1;strokeColor=none;fillColor=none;align=center;verticalAlign=middle;whiteSpace=wrap;rounded=0;" vertex="1" parent="QJkptyXSdFllFcenwYrm-4">
          <mxGeometry x="82.5" y="381" width="60" height="30" as="geometry" />
        </mxCell>
        <mxCell id="QJkptyXSdFllFcenwYrm-20" value="turmas List&amp;lt;Turma&amp;gt;" style="text;html=1;strokeColor=none;fillColor=none;align=center;verticalAlign=middle;whiteSpace=wrap;rounded=0;" vertex="1" parent="QJkptyXSdFllFcenwYrm-4">
          <mxGeometry x="40" y="70" width="120" height="30" as="geometry" />
        </mxCell>
        <mxCell id="QJkptyXSdFllFcenwYrm-22" value="cadastro_Aluno" style="text;html=1;strokeColor=none;fillColor=none;align=center;verticalAlign=middle;whiteSpace=wrap;rounded=0;" vertex="1" parent="QJkptyXSdFllFcenwYrm-4">
          <mxGeometry x="90" y="181" width="60" height="30" as="geometry" />
        </mxCell>
        <mxCell id="QJkptyXSdFllFcenwYrm-23" value="cadastro_professor&lt;br&gt;" style="text;html=1;strokeColor=none;fillColor=none;align=center;verticalAlign=middle;whiteSpace=wrap;rounded=0;" vertex="1" parent="QJkptyXSdFllFcenwYrm-4">
          <mxGeometry x="80" y="130" width="60" height="30" as="geometry" />
        </mxCell>
      </root>
    </mxGraphModel>
  </diagram>
</mxfile>
